<mxfile host="app.diagrams.net" modified="2023-10-18T21:46:09.907Z" agent="Mozilla/5.0 (X11; Linux x86_64; rv:91.0) Gecko/20100101 Firefox/91.0" etag="VpG8GNS1_QfDgRPuYY8i" version="21.3.2" type="device">
  <diagram name="Page-1" id="y3thGHWkG4k35AYRoUO6">
    <mxGraphModel dx="2272" dy="1885" grid="1" gridSize="10" guides="1" tooltips="1" connect="1" arrows="1" fold="1" page="1" pageScale="1" pageWidth="850" pageHeight="1100" math="0" shadow="0">
      <root>
        <mxCell id="0" />
        <mxCell id="1" parent="0" />
        <mxCell id="S8Px6Awkp_FgUIR-NWz5-1" value="" style="image;points=[];aspect=fixed;html=1;align=center;shadow=0;dashed=0;image=img/lib/allied_telesis/computer_and_terminals/Personal_Computer_with_Server.svg;" vertex="1" parent="1">
          <mxGeometry x="78.8" y="148.79999999999998" width="62.400000000000006" height="62.400000000000006" as="geometry" />
        </mxCell>
        <mxCell id="S8Px6Awkp_FgUIR-NWz5-2" value="" style="image;points=[];aspect=fixed;html=1;align=center;shadow=0;dashed=0;image=img/lib/allied_telesis/computer_and_terminals/Personal_Computer_with_Server.svg;" vertex="1" parent="1">
          <mxGeometry x="630.0000000000001" y="253.8" width="62.400000000000006" height="62.400000000000006" as="geometry" />
        </mxCell>
        <mxCell id="S8Px6Awkp_FgUIR-NWz5-3" value="" style="rounded=0;whiteSpace=wrap;html=1;fillColor=none;" vertex="1" parent="1">
          <mxGeometry x="150" y="130" width="210" height="100" as="geometry" />
        </mxCell>
        <mxCell id="S8Px6Awkp_FgUIR-NWz5-4" value="&lt;div align=&quot;left&quot;&gt;fd = socket()&lt;br&gt;bind()&lt;br&gt;send(fd, message)&lt;/div&gt;" style="text;html=1;strokeColor=none;fillColor=none;align=left;verticalAlign=middle;whiteSpace=wrap;rounded=0;" vertex="1" parent="1">
          <mxGeometry x="212.5" y="170" width="107.5" height="30" as="geometry" />
        </mxCell>
        <mxCell id="S8Px6Awkp_FgUIR-NWz5-5" value="" style="rounded=0;whiteSpace=wrap;html=1;fillColor=none;" vertex="1" parent="1">
          <mxGeometry x="90" y="-60" width="330" height="140" as="geometry" />
        </mxCell>
        <mxCell id="S8Px6Awkp_FgUIR-NWz5-7" value="" style="rounded=0;whiteSpace=wrap;html=1;fillColor=none;" vertex="1" parent="1">
          <mxGeometry x="640" y="-60" width="320" height="240" as="geometry" />
        </mxCell>
        <mxCell id="S8Px6Awkp_FgUIR-NWz5-9" value="Userspace" style="text;html=1;strokeColor=none;fillColor=none;align=center;verticalAlign=middle;whiteSpace=wrap;rounded=0;" vertex="1" parent="1">
          <mxGeometry x="156" y="130" width="60" height="30" as="geometry" />
        </mxCell>
        <mxCell id="S8Px6Awkp_FgUIR-NWz5-10" value="Kernelspace" style="text;html=1;strokeColor=none;fillColor=none;align=center;verticalAlign=middle;whiteSpace=wrap;rounded=0;" vertex="1" parent="1">
          <mxGeometry x="330" y="50" width="80" height="30" as="geometry" />
        </mxCell>
        <mxCell id="S8Px6Awkp_FgUIR-NWz5-17" value="pack_no, checksum" style="swimlane;fontStyle=0;childLayout=stackLayout;horizontal=1;startSize=30;horizontalStack=0;resizeParent=1;resizeParentMax=0;resizeLast=0;collapsible=1;marginBottom=0;whiteSpace=wrap;html=1;" vertex="1" parent="1">
          <mxGeometry x="405" y="140" width="110" height="60" as="geometry" />
        </mxCell>
        <mxCell id="S8Px6Awkp_FgUIR-NWz5-18" value="payload" style="text;strokeColor=none;fillColor=none;align=left;verticalAlign=middle;spacingLeft=4;spacingRight=4;overflow=hidden;points=[[0,0.5],[1,0.5]];portConstraint=eastwest;rotatable=0;whiteSpace=wrap;html=1;" vertex="1" parent="S8Px6Awkp_FgUIR-NWz5-17">
          <mxGeometry y="30" width="110" height="30" as="geometry" />
        </mxCell>
        <mxCell id="S8Px6Awkp_FgUIR-NWz5-22" value="Header" style="text;html=1;strokeColor=none;fillColor=none;align=center;verticalAlign=middle;whiteSpace=wrap;rounded=0;" vertex="1" parent="1">
          <mxGeometry x="550" y="140" width="60" height="30" as="geometry" />
        </mxCell>
        <mxCell id="S8Px6Awkp_FgUIR-NWz5-23" value="Data" style="text;html=1;strokeColor=none;fillColor=none;align=center;verticalAlign=middle;whiteSpace=wrap;rounded=0;" vertex="1" parent="1">
          <mxGeometry x="555" y="170" width="45" height="30" as="geometry" />
        </mxCell>
        <mxCell id="S8Px6Awkp_FgUIR-NWz5-24" value="" style="endArrow=classic;html=1;rounded=0;entryX=1;entryY=0.25;entryDx=0;entryDy=0;" edge="1" parent="1" target="S8Px6Awkp_FgUIR-NWz5-17">
          <mxGeometry width="50" height="50" relative="1" as="geometry">
            <mxPoint x="550" y="155" as="sourcePoint" />
            <mxPoint x="530" y="140" as="targetPoint" />
          </mxGeometry>
        </mxCell>
        <mxCell id="S8Px6Awkp_FgUIR-NWz5-25" value="" style="endArrow=classic;html=1;rounded=0;entryX=1;entryY=0.5;entryDx=0;entryDy=0;" edge="1" parent="1" target="S8Px6Awkp_FgUIR-NWz5-18">
          <mxGeometry width="50" height="50" relative="1" as="geometry">
            <mxPoint x="550" y="185" as="sourcePoint" />
            <mxPoint x="530" y="140" as="targetPoint" />
          </mxGeometry>
        </mxCell>
        <mxCell id="S8Px6Awkp_FgUIR-NWz5-26" value="Package structure" style="text;html=1;strokeColor=none;fillColor=none;align=center;verticalAlign=middle;whiteSpace=wrap;rounded=0;" vertex="1" parent="1">
          <mxGeometry x="405" y="110" width="110" height="30" as="geometry" />
        </mxCell>
        <mxCell id="S8Px6Awkp_FgUIR-NWz5-27" value="1, 0x1337" style="swimlane;fontStyle=0;childLayout=stackLayout;horizontal=1;startSize=30;horizontalStack=0;resizeParent=1;resizeParentMax=0;resizeLast=0;collapsible=1;marginBottom=0;whiteSpace=wrap;html=1;" vertex="1" parent="1">
          <mxGeometry x="110" y="-20" width="70" height="60" as="geometry" />
        </mxCell>
        <mxCell id="S8Px6Awkp_FgUIR-NWz5-29" value="me" style="text;html=1;align=center;verticalAlign=middle;resizable=0;points=[];autosize=1;strokeColor=none;fillColor=none;" vertex="1" parent="S8Px6Awkp_FgUIR-NWz5-27">
          <mxGeometry y="30" width="70" height="30" as="geometry" />
        </mxCell>
        <mxCell id="S8Px6Awkp_FgUIR-NWz5-30" value="2, 0xDEAD" style="swimlane;fontStyle=0;childLayout=stackLayout;horizontal=1;startSize=30;horizontalStack=0;resizeParent=1;resizeParentMax=0;resizeLast=0;collapsible=1;marginBottom=0;whiteSpace=wrap;html=1;" vertex="1" parent="1">
          <mxGeometry x="190" y="-20" width="70" height="60" as="geometry" />
        </mxCell>
        <mxCell id="S8Px6Awkp_FgUIR-NWz5-31" value="ss" style="text;html=1;align=center;verticalAlign=middle;resizable=0;points=[];autosize=1;strokeColor=none;fillColor=none;" vertex="1" parent="S8Px6Awkp_FgUIR-NWz5-30">
          <mxGeometry y="30" width="70" height="30" as="geometry" />
        </mxCell>
        <mxCell id="S8Px6Awkp_FgUIR-NWz5-32" value="3, 0xBEEF" style="swimlane;fontStyle=0;childLayout=stackLayout;horizontal=1;startSize=30;horizontalStack=0;resizeParent=1;resizeParentMax=0;resizeLast=0;collapsible=1;marginBottom=0;whiteSpace=wrap;html=1;" vertex="1" parent="1">
          <mxGeometry x="270" y="-20" width="70" height="60" as="geometry" />
        </mxCell>
        <mxCell id="S8Px6Awkp_FgUIR-NWz5-33" value="ag" style="text;html=1;align=center;verticalAlign=middle;resizable=0;points=[];autosize=1;strokeColor=none;fillColor=none;" vertex="1" parent="S8Px6Awkp_FgUIR-NWz5-32">
          <mxGeometry y="30" width="70" height="30" as="geometry" />
        </mxCell>
        <mxCell id="S8Px6Awkp_FgUIR-NWz5-34" value="4, 0xC0FE" style="swimlane;fontStyle=0;childLayout=stackLayout;horizontal=1;startSize=30;horizontalStack=0;resizeParent=1;resizeParentMax=0;resizeLast=0;collapsible=1;marginBottom=0;whiteSpace=wrap;html=1;" vertex="1" parent="1">
          <mxGeometry x="345" y="-20" width="65" height="60" as="geometry" />
        </mxCell>
        <mxCell id="S8Px6Awkp_FgUIR-NWz5-35" value="e!" style="text;html=1;align=center;verticalAlign=middle;resizable=0;points=[];autosize=1;strokeColor=none;fillColor=none;" vertex="1" parent="S8Px6Awkp_FgUIR-NWz5-34">
          <mxGeometry y="30" width="65" height="30" as="geometry" />
        </mxCell>
        <mxCell id="S8Px6Awkp_FgUIR-NWz5-36" value="2, 0xFFFF" style="swimlane;fontStyle=0;childLayout=stackLayout;horizontal=1;startSize=30;horizontalStack=0;resizeParent=1;resizeParentMax=0;resizeLast=0;collapsible=1;marginBottom=0;whiteSpace=wrap;html=1;" vertex="1" parent="1">
          <mxGeometry x="470" y="-170" width="75" height="60" as="geometry" />
        </mxCell>
        <mxCell id="S8Px6Awkp_FgUIR-NWz5-37" value="encrypted" style="text;html=1;align=center;verticalAlign=middle;resizable=0;points=[];autosize=1;strokeColor=none;fillColor=none;" vertex="1" parent="S8Px6Awkp_FgUIR-NWz5-36">
          <mxGeometry y="30" width="75" height="30" as="geometry" />
        </mxCell>
        <mxCell id="S8Px6Awkp_FgUIR-NWz5-38" value="1, 0x1337" style="swimlane;fontStyle=0;childLayout=stackLayout;horizontal=1;startSize=30;horizontalStack=0;resizeParent=1;resizeParentMax=0;resizeLast=0;collapsible=1;marginBottom=0;whiteSpace=wrap;html=1;" vertex="1" parent="1">
          <mxGeometry x="650" y="-170" width="75" height="60" as="geometry" />
        </mxCell>
        <mxCell id="S8Px6Awkp_FgUIR-NWz5-39" value="encrypted" style="text;html=1;align=center;verticalAlign=middle;resizable=0;points=[];autosize=1;strokeColor=none;fillColor=none;" vertex="1" parent="S8Px6Awkp_FgUIR-NWz5-38">
          <mxGeometry y="30" width="75" height="30" as="geometry" />
        </mxCell>
        <mxCell id="S8Px6Awkp_FgUIR-NWz5-40" value="3, 0xBEEF" style="swimlane;fontStyle=0;childLayout=stackLayout;horizontal=1;startSize=30;horizontalStack=0;resizeParent=1;resizeParentMax=0;resizeLast=0;collapsible=1;marginBottom=0;whiteSpace=wrap;html=1;" vertex="1" parent="1">
          <mxGeometry x="565" y="-170" width="75" height="60" as="geometry" />
        </mxCell>
        <mxCell id="S8Px6Awkp_FgUIR-NWz5-41" value="encrypted" style="text;html=1;align=center;verticalAlign=middle;resizable=0;points=[];autosize=1;strokeColor=none;fillColor=none;" vertex="1" parent="S8Px6Awkp_FgUIR-NWz5-40">
          <mxGeometry y="30" width="75" height="30" as="geometry" />
        </mxCell>
        <mxCell id="S8Px6Awkp_FgUIR-NWz5-42" value="4, 0xC0FE" style="swimlane;fontStyle=0;childLayout=stackLayout;horizontal=1;startSize=30;horizontalStack=0;resizeParent=1;resizeParentMax=0;resizeLast=0;collapsible=1;marginBottom=0;whiteSpace=wrap;html=1;" vertex="1" parent="1">
          <mxGeometry x="380" y="-170" width="73" height="60" as="geometry" />
        </mxCell>
        <mxCell id="S8Px6Awkp_FgUIR-NWz5-43" value="encrypted" style="text;html=1;align=center;verticalAlign=middle;resizable=0;points=[];autosize=1;strokeColor=none;fillColor=none;" vertex="1" parent="S8Px6Awkp_FgUIR-NWz5-42">
          <mxGeometry y="30" width="73" height="30" as="geometry" />
        </mxCell>
        <mxCell id="S8Px6Awkp_FgUIR-NWz5-45" value="" style="endArrow=classic;html=1;rounded=0;strokeColor=#FF4124;exitX=0.5;exitY=0;exitDx=0;exitDy=0;" edge="1" parent="1" source="S8Px6Awkp_FgUIR-NWz5-36">
          <mxGeometry width="50" height="50" relative="1" as="geometry">
            <mxPoint x="570" as="sourcePoint" />
            <mxPoint x="508" y="-240" as="targetPoint" />
          </mxGeometry>
        </mxCell>
        <mxCell id="S8Px6Awkp_FgUIR-NWz5-46" value="lost" style="text;html=1;strokeColor=none;fillColor=none;align=center;verticalAlign=middle;whiteSpace=wrap;rounded=0;" vertex="1" parent="1">
          <mxGeometry x="505" y="-220" width="60" height="30" as="geometry" />
        </mxCell>
        <mxCell id="S8Px6Awkp_FgUIR-NWz5-48" value="" style="endArrow=none;html=1;rounded=0;exitX=0.515;exitY=1.116;exitDx=0;exitDy=0;exitPerimeter=0;strokeColor=#33FF33;" edge="1" parent="1" source="S8Px6Awkp_FgUIR-NWz5-43">
          <mxGeometry width="50" height="50" relative="1" as="geometry">
            <mxPoint x="570" as="sourcePoint" />
            <mxPoint x="418" y="-80" as="targetPoint" />
          </mxGeometry>
        </mxCell>
        <mxCell id="S8Px6Awkp_FgUIR-NWz5-49" value="" style="endArrow=none;html=1;rounded=0;strokeColor=#33FF33;" edge="1" parent="1">
          <mxGeometry width="50" height="50" relative="1" as="geometry">
            <mxPoint x="420" y="-80" as="sourcePoint" />
            <mxPoint x="800" y="-80" as="targetPoint" />
          </mxGeometry>
        </mxCell>
        <mxCell id="S8Px6Awkp_FgUIR-NWz5-50" value="" style="endArrow=none;html=1;rounded=0;exitX=0.472;exitY=1.001;exitDx=0;exitDy=0;exitPerimeter=0;strokeColor=#33FF33;" edge="1" parent="1" source="S8Px6Awkp_FgUIR-NWz5-41">
          <mxGeometry width="50" height="50" relative="1" as="geometry">
            <mxPoint x="570" as="sourcePoint" />
            <mxPoint x="600" y="-80" as="targetPoint" />
          </mxGeometry>
        </mxCell>
        <mxCell id="S8Px6Awkp_FgUIR-NWz5-51" value="" style="endArrow=none;html=1;rounded=0;exitX=0.488;exitY=1.047;exitDx=0;exitDy=0;exitPerimeter=0;strokeColor=#33FF33;" edge="1" parent="1" source="S8Px6Awkp_FgUIR-NWz5-39">
          <mxGeometry width="50" height="50" relative="1" as="geometry">
            <mxPoint x="570" as="sourcePoint" />
            <mxPoint x="687" y="-80" as="targetPoint" />
          </mxGeometry>
        </mxCell>
        <mxCell id="S8Px6Awkp_FgUIR-NWz5-52" value="" style="endArrow=classic;html=1;rounded=0;entryX=0.5;entryY=0;entryDx=0;entryDy=0;strokeColor=#33FF33;" edge="1" parent="1" target="S8Px6Awkp_FgUIR-NWz5-7">
          <mxGeometry width="50" height="50" relative="1" as="geometry">
            <mxPoint x="800" y="-80" as="sourcePoint" />
            <mxPoint x="650" y="-90" as="targetPoint" />
          </mxGeometry>
        </mxCell>
        <mxCell id="S8Px6Awkp_FgUIR-NWz5-55" value="1, 0x1337" style="swimlane;fontStyle=0;childLayout=stackLayout;horizontal=1;startSize=30;horizontalStack=0;resizeParent=1;resizeParentMax=0;resizeLast=0;collapsible=1;marginBottom=0;whiteSpace=wrap;html=1;fillColor=#d5e8d4;strokeColor=#82b366;" vertex="1" parent="1">
          <mxGeometry x="850" y="-35" width="75" height="60" as="geometry" />
        </mxCell>
        <mxCell id="S8Px6Awkp_FgUIR-NWz5-56" value="encrypted" style="text;html=1;align=center;verticalAlign=middle;resizable=0;points=[];autosize=1;strokeColor=none;fillColor=none;" vertex="1" parent="S8Px6Awkp_FgUIR-NWz5-55">
          <mxGeometry y="30" width="75" height="30" as="geometry" />
        </mxCell>
        <mxCell id="S8Px6Awkp_FgUIR-NWz5-57" value="2, 0xFFFF" style="swimlane;fontStyle=0;childLayout=stackLayout;horizontal=1;startSize=30;horizontalStack=0;resizeParent=1;resizeParentMax=0;resizeLast=0;collapsible=1;marginBottom=0;whiteSpace=wrap;html=1;fillColor=#f8cecc;strokeColor=#b85450;" vertex="1" parent="1">
          <mxGeometry x="660" y="-35" width="75" height="60" as="geometry" />
        </mxCell>
        <mxCell id="S8Px6Awkp_FgUIR-NWz5-58" value="encrypted" style="text;html=1;align=center;verticalAlign=middle;resizable=0;points=[];autosize=1;strokeColor=none;fillColor=none;" vertex="1" parent="S8Px6Awkp_FgUIR-NWz5-57">
          <mxGeometry y="30" width="75" height="30" as="geometry" />
        </mxCell>
        <mxCell id="S8Px6Awkp_FgUIR-NWz5-59" value="3, 0xBEEF" style="swimlane;fontStyle=0;childLayout=stackLayout;horizontal=1;startSize=30;horizontalStack=0;resizeParent=1;resizeParentMax=0;resizeLast=0;collapsible=1;marginBottom=0;whiteSpace=wrap;html=1;fillColor=#d5e8d4;strokeColor=#82b366;" vertex="1" parent="1">
          <mxGeometry x="755" y="-35" width="75" height="60" as="geometry" />
        </mxCell>
        <mxCell id="S8Px6Awkp_FgUIR-NWz5-60" value="encrypted" style="text;html=1;align=center;verticalAlign=middle;resizable=0;points=[];autosize=1;strokeColor=none;fillColor=none;" vertex="1" parent="S8Px6Awkp_FgUIR-NWz5-59">
          <mxGeometry y="30" width="75" height="30" as="geometry" />
        </mxCell>
        <mxCell id="S8Px6Awkp_FgUIR-NWz5-61" value="1, 0x1337" style="swimlane;fontStyle=0;childLayout=stackLayout;horizontal=1;startSize=30;horizontalStack=0;resizeParent=1;resizeParentMax=0;resizeLast=0;collapsible=1;marginBottom=0;whiteSpace=wrap;html=1;" vertex="1" parent="1">
          <mxGeometry x="710" y="90" width="75" height="60" as="geometry" />
        </mxCell>
        <mxCell id="S8Px6Awkp_FgUIR-NWz5-62" value="me" style="text;html=1;align=center;verticalAlign=middle;resizable=0;points=[];autosize=1;strokeColor=none;fillColor=none;" vertex="1" parent="S8Px6Awkp_FgUIR-NWz5-61">
          <mxGeometry y="30" width="75" height="30" as="geometry" />
        </mxCell>
        <mxCell id="S8Px6Awkp_FgUIR-NWz5-64" value="3, 0xBEEF" style="swimlane;fontStyle=0;childLayout=stackLayout;horizontal=1;startSize=30;horizontalStack=0;resizeParent=1;resizeParentMax=0;resizeLast=0;collapsible=1;marginBottom=0;whiteSpace=wrap;html=1;" vertex="1" parent="1">
          <mxGeometry x="820" y="90" width="75" height="60" as="geometry" />
        </mxCell>
        <mxCell id="S8Px6Awkp_FgUIR-NWz5-65" value="ag" style="text;html=1;align=center;verticalAlign=middle;resizable=0;points=[];autosize=1;strokeColor=none;fillColor=none;" vertex="1" parent="S8Px6Awkp_FgUIR-NWz5-64">
          <mxGeometry y="30" width="75" height="30" as="geometry" />
        </mxCell>
        <mxCell id="S8Px6Awkp_FgUIR-NWz5-69" value="Calculate checksum, do reordering and encrypting:" style="text;html=1;strokeColor=none;fillColor=none;align=center;verticalAlign=middle;whiteSpace=wrap;rounded=0;" vertex="1" parent="1">
          <mxGeometry x="737.5" y="50" width="145" height="30" as="geometry" />
        </mxCell>
        <mxCell id="S8Px6Awkp_FgUIR-NWz5-70" value="" style="rounded=0;whiteSpace=wrap;html=1;fillColor=none;" vertex="1" parent="1">
          <mxGeometry x="702.5" y="240" width="195" height="90" as="geometry" />
        </mxCell>
        <mxCell id="S8Px6Awkp_FgUIR-NWz5-71" value="&lt;div align=&quot;left&quot;&gt;fd = socket()&lt;br&gt;connect()&lt;br&gt;meag =recv(fd)&lt;br&gt;&lt;/div&gt;" style="text;html=1;strokeColor=none;fillColor=none;align=left;verticalAlign=middle;whiteSpace=wrap;rounded=0;" vertex="1" parent="1">
          <mxGeometry x="765" y="276.2" width="90" height="30" as="geometry" />
        </mxCell>
        <mxCell id="S8Px6Awkp_FgUIR-NWz5-75" value="Userspace" style="text;html=1;strokeColor=none;fillColor=none;align=center;verticalAlign=middle;whiteSpace=wrap;rounded=0;" vertex="1" parent="1">
          <mxGeometry x="710" y="240" width="60" height="30" as="geometry" />
        </mxCell>
        <mxCell id="S8Px6Awkp_FgUIR-NWz5-76" value="" style="endArrow=classic;startArrow=classic;html=1;rounded=0;exitX=0.5;exitY=0;exitDx=0;exitDy=0;entryX=0.5;entryY=1;entryDx=0;entryDy=0;" edge="1" parent="1" source="S8Px6Awkp_FgUIR-NWz5-70" target="S8Px6Awkp_FgUIR-NWz5-7">
          <mxGeometry width="50" height="50" relative="1" as="geometry">
            <mxPoint x="600" y="180" as="sourcePoint" />
            <mxPoint x="650" y="130" as="targetPoint" />
          </mxGeometry>
        </mxCell>
        <mxCell id="S8Px6Awkp_FgUIR-NWz5-77" value="Kernelspace" style="text;html=1;strokeColor=none;fillColor=none;align=center;verticalAlign=middle;whiteSpace=wrap;rounded=0;" vertex="1" parent="1">
          <mxGeometry x="870" y="150" width="80" height="30" as="geometry" />
        </mxCell>
        <mxCell id="S8Px6Awkp_FgUIR-NWz5-78" value="" style="endArrow=classic;startArrow=classic;html=1;rounded=0;exitX=0.5;exitY=0;exitDx=0;exitDy=0;entryX=0.5;entryY=1;entryDx=0;entryDy=0;" edge="1" parent="1" source="S8Px6Awkp_FgUIR-NWz5-3" target="S8Px6Awkp_FgUIR-NWz5-5">
          <mxGeometry width="50" height="50" relative="1" as="geometry">
            <mxPoint x="470" y="220" as="sourcePoint" />
            <mxPoint x="520" y="170" as="targetPoint" />
          </mxGeometry>
        </mxCell>
        <mxCell id="S8Px6Awkp_FgUIR-NWz5-79" value="" style="rounded=0;whiteSpace=wrap;html=1;fillColor=none;" vertex="1" parent="1">
          <mxGeometry x="352" y="-220" width="398" height="130" as="geometry" />
        </mxCell>
        <mxCell id="S8Px6Awkp_FgUIR-NWz5-80" value="L1/L2/L3" style="text;html=1;strokeColor=none;fillColor=none;align=center;verticalAlign=middle;whiteSpace=wrap;rounded=0;" vertex="1" parent="1">
          <mxGeometry x="690" y="-250" width="60" height="30" as="geometry" />
        </mxCell>
        <mxCell id="S8Px6Awkp_FgUIR-NWz5-81" value="L4" style="text;html=1;strokeColor=none;fillColor=none;align=center;verticalAlign=middle;whiteSpace=wrap;rounded=0;" vertex="1" parent="1">
          <mxGeometry x="90" y="-90" width="40" height="30" as="geometry" />
        </mxCell>
        <mxCell id="S8Px6Awkp_FgUIR-NWz5-82" value="L4" style="text;html=1;strokeColor=none;fillColor=none;align=center;verticalAlign=middle;whiteSpace=wrap;rounded=0;" vertex="1" parent="1">
          <mxGeometry x="925" y="-90" width="40" height="30" as="geometry" />
        </mxCell>
        <mxCell id="S8Px6Awkp_FgUIR-NWz5-84" value="" style="endArrow=none;html=1;rounded=0;exitX=0.5;exitY=0;exitDx=0;exitDy=0;strokeColor=#3333FF;" edge="1" parent="1" source="S8Px6Awkp_FgUIR-NWz5-34">
          <mxGeometry width="50" height="50" relative="1" as="geometry">
            <mxPoint x="450" y="-70" as="sourcePoint" />
            <mxPoint x="377" y="-70" as="targetPoint" />
          </mxGeometry>
        </mxCell>
        <mxCell id="S8Px6Awkp_FgUIR-NWz5-85" value="" style="endArrow=none;html=1;rounded=0;exitX=0.5;exitY=0;exitDx=0;exitDy=0;strokeColor=#3333FF;" edge="1" parent="1" source="S8Px6Awkp_FgUIR-NWz5-32">
          <mxGeometry width="50" height="50" relative="1" as="geometry">
            <mxPoint x="450" y="-70" as="sourcePoint" />
            <mxPoint x="305" y="-70" as="targetPoint" />
          </mxGeometry>
        </mxCell>
        <mxCell id="S8Px6Awkp_FgUIR-NWz5-86" value="" style="endArrow=none;html=1;rounded=0;exitX=0.5;exitY=0;exitDx=0;exitDy=0;strokeColor=#3333FF;" edge="1" parent="1" source="S8Px6Awkp_FgUIR-NWz5-30">
          <mxGeometry width="50" height="50" relative="1" as="geometry">
            <mxPoint x="450" y="-70" as="sourcePoint" />
            <mxPoint x="225" y="-70" as="targetPoint" />
          </mxGeometry>
        </mxCell>
        <mxCell id="S8Px6Awkp_FgUIR-NWz5-87" value="" style="endArrow=none;html=1;rounded=0;exitX=0.5;exitY=0;exitDx=0;exitDy=0;strokeColor=#3333FF;" edge="1" parent="1" source="S8Px6Awkp_FgUIR-NWz5-27">
          <mxGeometry width="50" height="50" relative="1" as="geometry">
            <mxPoint x="450" y="-70" as="sourcePoint" />
            <mxPoint x="145" y="-70" as="targetPoint" />
          </mxGeometry>
        </mxCell>
        <mxCell id="S8Px6Awkp_FgUIR-NWz5-88" value="" style="endArrow=none;html=1;rounded=0;strokeColor=#3333FF;" edge="1" parent="1">
          <mxGeometry width="50" height="50" relative="1" as="geometry">
            <mxPoint x="145" y="-70" as="sourcePoint" />
            <mxPoint x="377" y="-70" as="targetPoint" />
          </mxGeometry>
        </mxCell>
        <mxCell id="S8Px6Awkp_FgUIR-NWz5-89" value="" style="endArrow=none;html=1;rounded=0;strokeColor=#3333FF;" edge="1" parent="1">
          <mxGeometry width="50" height="50" relative="1" as="geometry">
            <mxPoint x="260" y="-70" as="sourcePoint" />
            <mxPoint x="260" y="-150" as="targetPoint" />
          </mxGeometry>
        </mxCell>
        <mxCell id="S8Px6Awkp_FgUIR-NWz5-90" value="" style="endArrow=classic;html=1;rounded=0;strokeColor=#3333FF;" edge="1" parent="1">
          <mxGeometry width="50" height="50" relative="1" as="geometry">
            <mxPoint x="260" y="-150" as="sourcePoint" />
            <mxPoint x="350" y="-150" as="targetPoint" />
          </mxGeometry>
        </mxCell>
        <mxCell id="S8Px6Awkp_FgUIR-NWz5-91" value="&lt;div align=&quot;left&quot;&gt;1. set order&lt;br&gt;2. encrypt packages&lt;/div&gt;&lt;div align=&quot;left&quot;&gt;3. calculate checksum = md5(header) + md5(payload)&lt;br&gt;&lt;/div&gt;" style="text;html=1;strokeColor=none;fillColor=none;align=left;verticalAlign=middle;whiteSpace=wrap;rounded=0;" vertex="1" parent="1">
          <mxGeometry x="-120" y="-20" width="160" height="60" as="geometry" />
        </mxCell>
        <mxCell id="S8Px6Awkp_FgUIR-NWz5-92" value="" style="endArrow=none;dashed=1;html=1;dashPattern=1 3;strokeWidth=2;rounded=0;exitX=0;exitY=0.5;exitDx=0;exitDy=0;entryX=1;entryY=0.5;entryDx=0;entryDy=0;" edge="1" parent="1" source="S8Px6Awkp_FgUIR-NWz5-5" target="S8Px6Awkp_FgUIR-NWz5-91">
          <mxGeometry width="50" height="50" relative="1" as="geometry">
            <mxPoint x="200" as="sourcePoint" />
            <mxPoint x="250" y="-50" as="targetPoint" />
          </mxGeometry>
        </mxCell>
      </root>
    </mxGraphModel>
  </diagram>
</mxfile>
